<svg width="512" height="512" viewBox="0 0 512 512" fill="none" xmlns="http://www.w3.org/2000/svg">
<rect width="512" height="512" rx="50" fill="white"/>
<path d="M192.533 254.342C188.955 263.985 187.165 268.806 184 268.806C180.835 268.806 179.045 263.985 175.467 254.342L126.2 121.603C124.13 116.027 123.096 113.239 124.454 111.286C125.811 109.334 128.785 109.334 134.733 109.334H233.267C239.215 109.334 242.189 109.334 243.546 111.286C244.904 113.239 243.87 116.027 241.8 121.603L192.533 254.342Z" fill="#465A95"/>
<path d="M333.869 254.342C330.291 263.985 328.501 268.806 325.336 268.806C322.171 268.806 320.381 263.985 316.803 254.342L267.536 121.603C265.466 116.027 264.431 113.239 265.789 111.286C267.147 109.334 270.121 109.334 276.069 109.334H374.603C380.55 109.334 383.524 109.334 384.882 111.286C386.24 113.239 385.206 116.027 383.136 121.603L333.869 254.342Z" fill="#465A95"/>
<path d="M246.134 159.035C249.713 149.377 251.502 144.548 254.669 144.548C257.836 144.548 259.626 149.377 263.204 159.035L283.453 213.681L310.866 288.883C311.429 290.426 311.71 291.197 311.71 292C311.71 292.804 311.429 293.575 310.866 295.118L283.453 370.32L263.204 424.966C259.626 434.624 257.836 439.453 254.669 439.453C251.502 439.453 249.713 434.624 246.134 424.966L225.885 370.32L198.472 295.118C197.91 293.575 197.629 292.804 197.629 292C197.629 291.197 197.91 290.426 198.472 288.883L225.885 213.681L246.134 159.035Z" fill="#465A95"/>
</svg>
